<svg
    xmlns="http://www.w3.org/2000/svg"
    xmlns:xlink="http://www.w3.org/1999/xlink"
    width="500"
    height="500"
    viewBox="0 0 2000 2000"
>
  <defs>
    <style type="text/css">
      @import url('https://fonts.googleapis.com/css2?family=Outfit:wght@500');
    </style>
    <filter id="glow">
      <feFlood result="flood" flood-color="#00aef3" flood-opacity="1"/>
      <feComposite in="flood" result="mask" in2="SourceGraphic" operator="in"/>
      <feMorphology in="mask" result="dilated" operator="dilate" radius="5"/>
      <feGaussianBlur in="dilated" result="blurred" stdDeviation="5"/>
      <feMerge>
        <feMergeNode in="blurred"/>
        <feMergeNode in="SourceGraphic"/>
      </feMerge>
    </filter>
    <filter id="glow2">
      <feFlood result="flood" flood-color="#029ad6" flood-opacity="1"/>
      <feComposite in="flood" result="mask" in2="SourceGraphic" operator="in"/>
      <feMorphology in="mask" result="dilated" operator="dilate" radius="5"/>
      <feGaussianBlur in="dilated" result="blurred" stdDeviation="5"/>
      <feMerge>
        <feMergeNode in="blurred"/>
        <feMergeNode in="SourceGraphic"/>
      </feMerge>
    </filter>

    <g id="qi30">
      <svg version="1.1"  width="200" height="200" xmlns="http://www.w3.org/2000/svg" xmlns:xlink="http://www.w3.org/1999/xlink"
           x="0px" y="0px"
           viewBox="0 0 200 200" style="enable-background:new 0 0 200 200;" xml:space="preserve">
        <style type="text/css">
          .st0{fill:#00171F;}
          .st1{fill:#00B2EC;}
        </style>
                <circle class="st0" cx="100" cy="100" r="63.6" style="filter: url(#glow2)"/>
                <g>
          <path d="M119.2,132.9l-0.1,0.1c-18.2,10.5-41.5,4.3-52-13.9s-4.3-41.5,13.9-52l0,0l0,0c18.2-10.5,41.5-4.3,52,13.9
            c2.1,3.6,3.5,7.4,4.4,11.5l26.3,11.4c2.1-35.2-24.7-65.3-59.9-67.4S38.4,61,36.4,96.2s24.7,65.3,59.9,67.4
            c18.6,1.1,36.7-6,49.7-19.4C145,143.9,119.2,132.9,119.2,132.9z" fill="#ffffff"/>
                  <path class="st1" d="M186.3,123.6l-33.7-14.5l-18.2-7.8l0,0l-1.2-0.5c-0.3-0.1-0.6-0.2-1-0.4c-0.9-0.3-1.8-0.5-2.7-0.7
            c-0.4-0.1-0.8-0.2-1.3-0.2c-0.2,0-0.5-0.1-0.7-0.1c-0.2,0-0.5-0.1-0.7-0.1c-0.5-0.1-1-0.1-1.5-0.1c-4.6-0.3-10.7,0.5-17.2,4.2
            l-14.4,8.3l0.1,0l0,0.1l33.7,14.5l18.2,7.8l0,0l1.2,0.5c0.3,0.1,0.7,0.2,1,0.4c0.9,0.3,1.8,0.5,2.7,0.7c0.4,0.1,0.8,0.2,1.3,0.2
            l0.7,0.1l0.7,0.1c0.5,0.1,1,0.1,1.5,0.1c4.6,0.3,10.7-0.5,17.2-4.2l14.4-8.3L186.3,123.6L186.3,123.6z"/>
        </g>
      </svg>
    </g>
    <g id="qi90">
      <svg version="1.1"  width="200" height="200" xmlns="http://www.w3.org/2000/svg" xmlns:xlink="http://www.w3.org/1999/xlink"
           x="0px" y="0px"
           viewBox="0 0 200 200" style="enable-background:new 0 0 200 200;" xml:space="preserve">
        <style type="text/css">
          .st0{fill:#00171F;}
          .st1{fill:#00B2EC;}
        </style>
                <circle class="st0" cx="100" cy="100" r="63.6" style="filter: url(#glow2)"/>
                <g>
          <path d="M138.1,99.8v0.1c0,21-17,38.1-38.1,38.1c-21,0-38.1-17-38.1-38.1l0,0l0,0c0-21,17-38.1,38-38.1c4.1,0,8.2,0.7,12.1,2
            l23-17.1c-29.4-19.4-68.9-11.3-88.3,18.2s-11.3,68.9,18.2,88.3s68.9,11.3,88.3-18.2c10.3-15.6,13.2-34.8,8-52.7
            C160.6,83,138.1,99.8,138.1,99.8z" fill="#ffffff"/>
                  <path class="st1" d="M163.6,37.1L134.2,59l-15.9,11.8l0,0l-1,0.8c-0.2,0.2-0.5,0.4-0.8,0.7c-0.7,0.6-1.3,1.3-2,1.9
            c-0.3,0.3-0.6,0.6-0.8,1c-0.1,0.2-0.3,0.4-0.4,0.5s-0.3,0.4-0.4,0.6c-0.3,0.4-0.6,0.8-0.8,1.2c-2.5,3.9-4.9,9.5-4.9,17v16.6
            l0.1-0.1l0,0.1l29.4-21.9l15.9-11.8l0,0l1-0.8c0.2-0.2,0.5-0.4,0.8-0.7c0.7-0.6,1.3-1.3,2-1.9c0.3-0.3,0.6-0.6,0.8-1l0.4-0.5
            L158,72c0.3-0.4,0.6-0.8,0.8-1.2c2.5-3.9,4.9-9.5,4.9-17V37.1H163.6L163.6,37.1z"/>
        </g>
      </svg>
    </g>
    <g id="qi150">
      <svg version="1.1"  width="200" height="200" xmlns="http://www.w3.org/2000/svg" xmlns:xlink="http://www.w3.org/1999/xlink"
           x="0px" y="0px"
           viewBox="0 0 200 200" style="enable-background:new 0 0 200 200;" xml:space="preserve">
        <style type="text/css">
          .st0{fill:#00171F;}
          .st1{fill:#00B2EC;}
        </style>
                <circle class="st0" cx="100" cy="100" r="63.6" style="filter: url(#glow2)"/>
                <g>
          <path d="M118.9,66.9L119,67c18.2,10.5,24.5,33.8,14,52s-33.8,24.5-52,14l0,0l0,0c-18.2-10.5-24.5-33.8-14-52
            c2.1-3.6,4.7-6.8,7.8-9.5L71.4,43C40,58.7,27.2,97.1,43,128.5s54.1,44.2,85.6,28.4s44.2-54.1,28.4-85.6
            c-8.3-16.7-23.6-28.8-41.6-33.3C115.6,39,118.9,66.9,118.9,66.9z" fill="#ffffff"/>
                  <path class="st1" d="M77.4,13.4l4.3,36.5l2.3,19.6l0,0l0.2,1.3c0.1,0.3,0.1,0.7,0.2,1.1c0.2,0.9,0.4,1.8,0.7,2.7
            c0.1,0.4,0.3,0.8,0.4,1.2c0.1,0.2,0.2,0.4,0.3,0.6c0.1,0.2,0.2,0.4,0.3,0.6c0.2,0.4,0.4,0.9,0.6,1.3c2.1,4.1,5.7,9,12.3,12.8
            l14.4,8.3l0-0.1l0.1,0L109,62.9l-2.3-19.6l0,0l-0.2-1.3c0-0.3-0.1-0.7-0.2-1.1c-0.2-0.9-0.4-1.8-0.7-2.7c-0.1-0.4-0.3-0.8-0.4-1.2
            l-0.3-0.6l-0.3-0.6c-0.2-0.4-0.4-0.9-0.6-1.3c-2.1-4.1-5.7-9-12.3-12.8l-14.4-8.3L77.4,13.4L77.4,13.4z"/>
        </g>
      </svg>
    </g>
    <g id="qi210">
      <svg version="1.1"  width="200" height="200" xmlns="http://www.w3.org/2000/svg" xmlns:xlink="http://www.w3.org/1999/xlink"
           x="0px" y="0px"
           viewBox="0 0 200 200" style="enable-background:new 0 0 200 200;" xml:space="preserve">
        <style type="text/css">
          .st0{fill:#00171F;}
          .st1{fill:#00B2EC;}
        </style>
                <circle class="st0" cx="100" cy="100" r="63.6" style="filter: url(#glow2)"/>
                <g>
          <path d="M80.8,67l0.1-0.1c18.2-10.5,41.5-4.3,52,13.9c10.5,18.2,4.3,41.5-13.9,52l0,0l0,0c-18.2,10.5-41.5,4.3-52-13.9
            c-2.1-3.6-3.5-7.4-4.4-11.5L36.4,96.2c-2.1,35.2,24.7,65.3,59.9,67.4s65.3-24.7,67.4-59.9s-24.7-65.3-59.9-67.4
            c-18.6-1.1-36.7,6-49.7,19.4C55,56,80.8,67,80.8,67z" fill="#ffffff"/>
                  <path class="st1" d="M13.7,76.3l33.7,14.5l18.2,7.8l0,0l1.2,0.5c0.3,0.1,0.6,0.2,1,0.4c0.9,0.3,1.8,0.5,2.7,0.7
            c0.4,0.1,0.8,0.2,1.3,0.2c0.2,0,0.5,0.1,0.7,0.1c0.2,0,0.5,0.1,0.7,0.1c0.5,0.1,1,0.1,1.5,0.1c4.6,0.3,10.7-0.5,17.2-4.2l14.4-8.3
            l-0.1,0l0-0.1L72.4,73.6l-18.2-7.8l0,0l-1.2-0.5c-0.3-0.1-0.7-0.2-1-0.4c-0.9-0.3-1.8-0.5-2.7-0.7c-0.4-0.1-0.8-0.2-1.3-0.2
            l-0.7-0.1l-0.7-0.1c-0.5-0.1-1-0.1-1.5-0.1c-4.6-0.3-10.7,0.5-17.2,4.2l-14.4,8.3L13.7,76.3L13.7,76.3z"/>
        </g>
      </svg>
    </g>
    <g id="qi270">
      <svg version="1.1"  width="200" height="200" xmlns="http://www.w3.org/2000/svg" xmlns:xlink="http://www.w3.org/1999/xlink"
           x="0px" y="0px"
           viewBox="0 0 200 200" style="enable-background:new 0 0 200 200;" xml:space="preserve">
        <style type="text/css">
          .st0{fill:#00171F;}
          .st1{fill:#00B2EC;}
        </style>
                <circle class="st0" cx="100" cy="100" r="63.6" style="filter: url(#glow2)"/>
                <g>
          <path d="M61.9,100.1V100c0-21,17-38.1,38.1-38.1s38.1,17,38.1,38.1l0,0l0,0c0,21-17,38.1-38,38.1c-4.1,0-8.2-0.7-12.1-2l-23,17.1
            c29.4,19.4,68.9,11.3,88.3-18.2s11.3-68.9-18.2-88.3S66.1,35.5,46.8,64.9c-10.3,15.6-13.2,34.8-8,52.7
            C39.4,117,61.9,100.1,61.9,100.1z" fill="#ffffff"/>
                  <path class="st1" d="M36.4,162.9L65.8,141l15.9-11.8l0,0l1-0.8c0.2-0.2,0.5-0.4,0.8-0.7c0.7-0.6,1.3-1.3,2-1.9
            c0.3-0.3,0.6-0.6,0.8-1c0.1-0.2,0.3-0.4,0.4-0.5c0.1-0.2,0.3-0.4,0.4-0.6c0.3-0.4,0.6-0.8,0.8-1.2c2.5-3.9,4.9-9.5,4.9-17V88.8
            l-0.1,0.1l0-0.1l-29.4,21.9l-15.9,11.8l0,0l-1,0.8c-0.2,0.2-0.5,0.4-0.8,0.7c-0.7,0.6-1.3,1.3-2,1.9c-0.3,0.3-0.6,0.6-0.8,1
            l-0.4,0.5L42,128c-0.3,0.4-0.6,0.8-0.8,1.2c-2.5,3.9-4.9,9.5-4.9,17v16.6H36.4L36.4,162.9z"/>
        </g>
      </svg>
    </g>
    <g id="qi330">
      <svg version="1.1"  width="200" height="200" xmlns="http://www.w3.org/2000/svg" xmlns:xlink="http://www.w3.org/1999/xlink"
           x="0px" y="0px"
           viewBox="0 0 200 200" style="enable-background:new 0 0 200 200;" xml:space="preserve">
        <style type="text/css">
          .st0{fill:#001D27;}
          .st1{fill:#00B2EC;}
        </style>
                <circle class="st0" cx="100" cy="100" r="63.6" style="filter: url(#glow2)"/>
                <g>
          <path d="M81.1,133.1L81,133c-18.2-10.5-24.5-33.8-14-52s33.8-24.5,52-14l0,0l0,0c18.2,10.5,24.5,33.8,14,52
            c-2.1,3.6-4.7,6.8-7.8,9.5l3.3,28.5c31.5-15.8,44.2-54.1,28.4-85.6S102.9,27.2,71.4,43S27.2,97.1,43,128.5
            c8.3,16.7,23.6,28.8,41.6,33.3C84.4,160.9,81.1,133.1,81.1,133.1z" fill="#ffffff"/>
                  <path class="st1" d="M122.6,186.5l-4.3-36.5l-2.3-19.6l0,0l-0.2-1.3c-0.1-0.3-0.1-0.7-0.2-1.1c-0.2-0.9-0.4-1.8-0.7-2.7
            c-0.1-0.4-0.3-0.8-0.4-1.2c-0.1-0.2-0.2-0.4-0.3-0.6c-0.1-0.2-0.2-0.4-0.3-0.6c-0.2-0.4-0.4-0.9-0.6-1.3c-2.1-4.1-5.7-9-12.3-12.8
            l-14.4-8.3l0,0.1l-0.1,0L91,137l2.3,19.6l0,0l0.2,1.3c0,0.3,0.1,0.7,0.2,1.1c0.2,0.9,0.4,1.8,0.7,2.7c0.1,0.4,0.3,0.8,0.4,1.2
            l0.3,0.6l0.3,0.6c0.2,0.4,0.4,0.9,0.6,1.3c2.1,4.1,5.7,9,12.3,12.8l14.4,8.3L122.6,186.5L122.6,186.5z"/>
        </g>
      </svg>
    </g>

    <g id="avax30">
      <svg width="100" height="100" xmlns="http://www.w3.org/2000/svg" xmlns:xlink="http://www.w3.org/1999/xlink" x="0px" y="0px"
           viewBox="0 0 100 100" style="enable-background:new 0 0 100 100;" xml:space="preserve">
        <style type="text/css">
          .st2{fill:#FFFFFF;}
          .st3{fill-rule:evenodd;clip-rule:evenodd;fill:#E84142;}
        </style>
                <rect x="16.7" y="17.8" transform="matrix(0.866 -0.5 0.5 0.866 -16.5612 29.9343)" class="st2" width="61.7" height="56.1"/>
                <path class="st3" d="M93.2,25C107,48.9,98.8,79.5,75,93.2C51.1,107,20.5,98.8,6.8,75C-7,51.1,1.2,20.5,25,6.8
          C48.9-7,79.5,1.2,93.2,25z M47.7,74.3l-8.4,4.8c-1.8,1-2.6,1.5-3.4,1.5c-0.8,0-1.5-0.5-1.9-1.1c-0.4-0.6-0.4-1.6-0.4-3.7l-0.4-48.5
          c0-2.1,0-3.1,0.4-3.7c0.4-0.7,1.2-1.1,1.9-1.1c0.7,0,1.6,0.5,3.4,1.5l8.6,5l0,0c1.9,1.1,2.9,1.7,3.6,2.4c0.8,0.8,1.4,1.9,1.7,3
          c0.3,1,0.3,2.1,0.3,4.4l0.2,25.5l0,0.1c0,2.2,0,3.4-0.3,4.4c-0.3,1.1-0.9,2.1-1.7,3C50.6,72.6,49.7,73.1,47.7,74.3z M68.9,62l12-6.9
          c1.8-1,2.7-1.5,3-2.2c0.4-0.7,0.4-1.5,0-2.2c-0.3-0.6-1.2-1.1-2.8-2.1c-0.1,0-0.1-0.1-0.2-0.1l-12-6.8l-0.1-0.1
          c-1.7-0.9-2.5-1.4-3.2-1.4c-0.8,0-1.5,0.5-1.9,1.1c-0.4,0.6-0.4,1.6-0.4,3.6l-0.1,13.8l0,0c0,2,0,3,0.4,3.6c0.4,0.7,1.1,1.1,1.9,1.1
          C66.2,63.6,67.1,63.1,68.9,62z"/>
      </svg>
    </g>
    <g id="avax90">
      <svg width="100" height="100" xmlns="http://www.w3.org/2000/svg" xmlns:xlink="http://www.w3.org/1999/xlink" x="0px" y="0px"
           viewBox="0 0 100 100" style="enable-background:new 0 0 100 100;" xml:space="preserve">
        <style type="text/css">
          .st2{fill:#FFFFFF;}
          .st3{fill-rule:evenodd;clip-rule:evenodd;fill:#E84142;}
        </style>
                <rect x="17.2" y="19.2" class="st2" width="56.1" height="61.7"/>
                <path class="st3" d="M50,0.1c27.6,0,49.9,22.4,49.9,49.9c0,27.6-22.4,49.9-49.9,49.9C22.4,99.9,0.1,77.6,0.1,50
          C0.1,22.4,22.4,0.1,50,0.1z M69.9,64.1v9.7c0,2,0,3-0.4,3.7c-0.4,0.7-1.1,1.1-1.9,1.1c-0.7,0-1.6-0.5-3.4-1.5L22,53.2
          c-1.8-1-2.7-1.5-3-2.2c-0.4-0.7-0.4-1.5,0-2.2c0.3-0.7,1.2-1.2,3-2.2l8.6-4.9l0,0c1.9-1.1,2.9-1.7,3.9-1.9c1.1-0.3,2.3-0.3,3.4,0
          c1,0.2,2,0.8,4,1.9l22.2,12.6l0.1,0c1.9,1.1,2.9,1.7,3.7,2.4c0.8,0.8,1.4,1.9,1.7,3C69.9,60.7,69.9,61.9,69.9,64.1z M69.9,39.7V25.8
          c0-2,0-3.1-0.4-3.7C69,21.4,68.3,21,67.5,21c-0.7,0-1.5,0.5-3.2,1.4c-0.1,0-0.1,0.1-0.2,0.1l-11.9,7l-0.1,0.1
          c-1.7,1-2.5,1.5-2.8,2.1c-0.4,0.7-0.4,1.5,0,2.2c0.3,0.6,1.2,1.2,3,2.2L64.2,43l0,0c1.8,1,2.6,1.5,3.3,1.5c0.8,0,1.5-0.5,1.9-1.1
          C69.9,42.8,69.9,41.7,69.9,39.7z"/>
      </svg>
    </g>
    <g id="avax150">
      <svg width="100" height="100" xmlns="http://www.w3.org/2000/svg" xmlns:xlink="http://www.w3.org/1999/xlink" x="0px" y="0px"
         viewBox="0 0 100 100" style="enable-background:new 0 0 100 100;" xml:space="preserve">
        <style type="text/css">
          .st2{fill:#FFFFFF;}
          .st3{fill-rule:evenodd;clip-rule:evenodd;fill:#E84142;}
        </style>
        <rect x="19.6" y="23.3" transform="matrix(0.5 -0.866 0.866 0.5 -23.0885 68.3345)" class="st2" width="56.1" height="61.7"/>
        <path class="st3" d="M6.8,25C20.5,1.2,51.1-7,75,6.8C98.8,20.5,107,51.1,93.2,75C79.5,98.8,48.9,107,25,93.2C1.2,79.5-7,48.9,6.8,25
          z M72.2,39.9l8.4,4.8c1.8,1,2.6,1.5,3,2.2c0.4,0.7,0.4,1.5,0,2.2c-0.3,0.6-1.2,1.2-3,2.2L38.8,75.9c-1.8,1-2.7,1.6-3.4,1.5
          c-0.8,0-1.5-0.5-1.9-1.1c-0.4-0.6-0.4-1.6-0.4-3.7l0-9.9l0-0.1c0-2.2,0-3.3,0.3-4.3c0.3-1.1,0.9-2.1,1.7-3c0.7-0.8,1.7-1.3,3.6-2.5
          l22-13l0.1,0c1.9-1.1,2.9-1.7,3.9-1.9c1.1-0.3,2.3-0.3,3.4,0C69.2,38.2,70.2,38.7,72.2,39.9z M51,27.6l-12-6.9
          c-1.8-1-2.7-1.5-3.4-1.5c-0.8,0-1.5,0.5-1.9,1.1c-0.4,0.6-0.4,1.6-0.4,3.5c0,0.1,0,0.1,0,0.2l0.1,13.8l0,0.2c0,1.9,0,2.9,0.4,3.5
          c0.4,0.7,1.1,1.1,1.9,1.1c0.7,0,1.6-0.5,3.4-1.5l12-6.8l0,0c1.8-1,2.6-1.5,3-2.2c0.4-0.7,0.4-1.5,0-2.2C53.7,29.2,52.8,28.7,51,27.6
          z"/>
      </svg>
    </g>
    <g id="avax210">
      <svg width="100" height="100" xmlns="http://www.w3.org/2000/svg" xmlns:xlink="http://www.w3.org/1999/xlink" x="0px" y="0px"
           viewBox="0 0 100 100" style="enable-background:new 0 0 100 100;" xml:space="preserve">
        <style type="text/css">
          .st2{fill:#FFFFFF;}
          .st3{fill-rule:evenodd;clip-rule:evenodd;fill:#E84142;}
        </style>
                <rect x="21.6" y="26.1" transform="matrix(0.866 -0.5 0.5 0.866 -20.0414 33.4631)" class="st2" width="61.7" height="56.1"/>
                <path class="st3" d="M6.8,75C-7,51.1,1.2,20.5,25,6.8C48.9-7,79.5,1.2,93.2,25C107,48.9,98.8,79.5,75,93.2
          C51.1,107,20.5,98.8,6.8,75z M52.3,25.7l8.4-4.8c1.8-1,2.6-1.5,3.4-1.5c0.8,0,1.5,0.5,1.9,1.1c0.4,0.6,0.4,1.6,0.4,3.7l0.4,48.5
          c0,2.1,0,3.1-0.4,3.7c-0.4,0.7-1.2,1.1-1.9,1.1c-0.7,0-1.6-0.5-3.4-1.5l-8.6-5l0,0c-1.9-1.1-2.9-1.7-3.6-2.4c-0.8-0.8-1.4-1.9-1.7-3
          c-0.3-1-0.3-2.1-0.3-4.4l-0.2-25.5l0-0.1c0-2.2,0-3.4,0.3-4.4c0.3-1.1,0.9-2.1,1.7-3C49.4,27.4,50.3,26.9,52.3,25.7z M31.1,38
          l-12,6.9c-1.8,1-2.7,1.5-3,2.2c-0.4,0.7-0.4,1.5,0,2.2c0.3,0.6,1.2,1.1,2.8,2.1c0.1,0,0.1,0.1,0.2,0.1l12,6.8l0.1,0.1
          c1.7,0.9,2.5,1.4,3.2,1.4c0.8,0,1.5-0.5,1.9-1.1c0.4-0.6,0.4-1.6,0.4-3.6l0.1-13.8l0,0c0-2,0-3-0.4-3.6c-0.4-0.7-1.1-1.1-1.9-1.1
          C33.8,36.4,32.9,36.9,31.1,38z"/>
      </svg>
    </g>
    <g id="avax270">
      <svg width="100" height="100" xmlns="http://www.w3.org/2000/svg" xmlns:xlink="http://www.w3.org/1999/xlink" x="0px" y="0px"
           viewBox="0 0 100 100" style="enable-background:new 0 0 100 100;" xml:space="preserve">
        <style type="text/css">
          .st2{fill:#FFFFFF;}
          .st3{fill-rule:evenodd;clip-rule:evenodd;fill:#E84142;}
        </style>
                <rect x="26.7" y="19.1" class="st2" width="56.1" height="61.7"/>
                <path class="st3" d="M50,99.9C22.4,99.9,0.1,77.6,0.1,50C0.1,22.4,22.4,0.1,50,0.1c27.6,0,49.9,22.4,49.9,49.9
          C99.9,77.6,77.6,99.9,50,99.9z M30.1,35.9v-9.7c0-2,0-3,0.4-3.7c0.4-0.7,1.1-1.1,1.9-1.1c0.7,0,1.6,0.5,3.4,1.5L78,46.8
          c1.8,1,2.7,1.5,3,2.2c0.4,0.7,0.4,1.5,0,2.2c-0.3,0.7-1.2,1.2-3,2.2l-8.6,4.9l0,0c-1.9,1.1-2.9,1.7-3.9,1.9c-1.1,0.3-2.3,0.3-3.4,0
          c-1-0.2-2-0.8-4-1.9L35.9,45.7l-0.1,0c-1.9-1.1-2.9-1.7-3.7-2.4c-0.8-0.8-1.4-1.9-1.7-3C30.1,39.3,30.1,38.1,30.1,35.9z M30.1,60.3
          v13.9c0,2,0,3.1,0.4,3.7c0.4,0.7,1.2,1.1,1.9,1.1c0.7,0,1.5-0.5,3.2-1.4c0.1,0,0.1-0.1,0.2-0.1l11.9-7l0.1-0.1
          c1.7-1,2.5-1.5,2.8-2.1c0.4-0.7,0.4-1.5,0-2.2c-0.3-0.6-1.2-1.2-3-2.2L35.8,57l0,0c-1.8-1-2.6-1.5-3.3-1.5c-0.8,0-1.5,0.5-1.9,1.1
          C30.1,57.2,30.1,58.3,30.1,60.3z"/>
      </svg>
    </g>
    <g id="avax330">
      <svg width="100" height="100" xmlns="http://www.w3.org/2000/svg" xmlns:xlink="http://www.w3.org/1999/xlink" x="0px" y="0px"
           viewBox="0 0 100 100" style="enable-background:new 0 0 100 100;" xml:space="preserve">
        <style type="text/css">
          .st2{fill:#FFFFFF;}
          .st3{fill-rule:evenodd;clip-rule:evenodd;fill:#E84142;}
        </style>
                <rect x="24.3" y="15" transform="matrix(0.5 -0.866 0.866 0.5 -13.514 68.268)" class="st2" width="56.1" height="61.7"/>
                <path class="st3" d="M93.2,75C79.5,98.8,48.9,107,25,93.2C1.2,79.5-7,48.9,6.8,25C20.5,1.2,51.1-7,75,6.8
          C98.8,20.5,107,51.1,93.2,75z M27.8,60.1l-8.4-4.8c-1.8-1-2.6-1.5-3-2.2c-0.4-0.7-0.4-1.5,0-2.2c0.3-0.6,1.2-1.2,3-2.2l41.8-24.6
          c1.8-1,2.7-1.6,3.4-1.5c0.8,0,1.5,0.5,1.9,1.1c0.4,0.6,0.4,1.6,0.4,3.7l0,9.9l0,0.1c0,2.2,0,3.3-0.3,4.3c-0.3,1.1-0.9,2.1-1.7,3
          c-0.7,0.8-1.7,1.3-3.6,2.5l-22,13l-0.1,0c-1.9,1.1-2.9,1.7-3.9,1.9c-1.1,0.3-2.3,0.3-3.4,0C30.8,61.8,29.8,61.3,27.8,60.1z M49,72.4
          l12,6.9c1.8,1,2.7,1.5,3.4,1.5c0.8,0,1.5-0.5,1.9-1.1c0.4-0.6,0.4-1.6,0.4-3.5c0-0.1,0-0.1,0-0.2l-0.1-13.8l0-0.2
          c0-1.9,0-2.9-0.4-3.5c-0.4-0.7-1.1-1.1-1.9-1.1c-0.7,0-1.6,0.5-3.4,1.5l-12,6.8l0,0c-1.8,1-2.6,1.5-3,2.2c-0.4,0.7-0.4,1.5,0,2.2
          C46.3,70.8,47.2,71.3,49,72.4z"/>
      </svg>
    </g>

    <g id="benqi">
      <svg xmlns="http://www.w3.org/2000/svg" width="400" height="200" viewBox="0 0 889.42 240.77">
        <path
            d="M0,26.24H78.9c42.9,0,72.9,19.2,72.9,56.1,0,18-8.7,36.31-24.9,45.6v.6c24.6,7.5,33.6,29.41,33.6,48.31,0,46.8-39,63.9-81.6,63.9H0Zm79.5,83.1c13.2,0,18.9-9.6,18.9-19.8,0-9.9-5.7-18.3-19.8-18.3H52.5v38.1ZM84,195.75c15.3,0,22.8-10.5,22.8-22.5s-7.2-21.9-22.5-21.9H52.5v44.4Z"
            transform="translate(0 0.02)" fill="#ffffff"/>
        <path d="M185.7,26.24H324v45H238.2v39h86.1v45H238.2v40.5h86.1v45H185.7Z" transform="translate(0 0.02)" fill="#ffffff"/>
        <path
            d="M354.5,26.24h53.1L467,126.44c8.4,14.1,18,36.61,18,36.61h.6s-2.4-23.11-2.4-36.61V26.24h52.5V240.75H482.9l-59.7-99.9c-8.4-14.1-18-36.61-18-36.61h-.6s2.4,23.1,2.4,36.61v99.9H354.5Z"
            transform="translate(0 0.02)" fill="#ffffff"/>
        <path d="M836.92,26.24h52.5V240.75h-52.5Z" transform="translate(0 0.02)" fill="#ffffff"/>
        <path
            d="M686.54,192.34h-.25a71.91,71.91,0,0,1-1.78-143.81h1.7a71.87,71.87,0,0,1,68.22,94.66l32.31,43.4A120.34,120.34,0,1,0,719.55,236c-1.24-1.32-33-43.7-33-43.7"
            transform="translate(0 0.02)" fill="#ffffff"/>
        <path
            d="M743.34,155h0l-1.47-2c-.36-.46-.84-1-1.34-1.58a49.14,49.14,0,0,0-3.68-3.68c-.57-.51-1.18-1-1.83-1.57l-1-.82-1-.8q-1.1-.81-2.31-1.62c-9.53-6.22-19.76-9.28-32.09-9.28H667.14s51.77,69.28,64.57,86.72a42.35,42.35,0,0,0,4.85,5.6c.23.22.47.45.72.67.57.51,1.18,1,1.83,1.58l1,.82,1,.8q1.1.81,2.31,1.62a57.39,57.39,0,0,0,32.11,9.29H807Z"
            transform="translate(0 0.02)" fill="#ffffff"/>
      </svg>
    </g>
    <g id="target">
      <circle cx="0" cy="0" r="68" fill="none" stroke="#00aef3" stroke-width="5"/>
      <circle cx="0" cy="0" r="55" fill="#00B3ED"/>
      <circle cx="0" cy="0" r="50" fill="#00aef3"/>
    </g>
    <g id="row30">
      <g>
        <circle cx="300" cy="0" r="5" fill="#a8a8a8"/>
        <circle cx="350" cy="0" r="5" fill="#cacaca"/>
        <circle cx="400" cy="0" r="5" fill="#dfdfdf"/>
        <circle cx="450" cy="0" r="5" fill="#f7f7f7"/>
        <circle cx="500" cy="0" r="5" fill="#f7f7f7"/>
        <circle cx="550" cy="0" r="5" fill="#efefef"/>
        <circle cx="600" cy="0" r="5" fill="#dfdfdf"/>
        <circle cx="650" cy="0" r="5" fill="#cacaca"/>
        <circle cx="700" cy="0" r="5" fill="#a8a8a8"/>
        <circle cx="750" cy="0" r="5" fill="#878787"/>
        <circle cx="800" cy="0" r="5" fill="#6d6d6d"/>
      </g>

      <use xlink:href="#avax30" x="0" y="-50">
        <animate
            id="avaxShift"
            attributeName="x"
            values="0;850"
            begin="0;avaxShift.end+0.2s"
            dur="3.8s"
        />
        <animate
            id="avaxWait"
            attributeName="x"
            values="850;850"
            begin="avaxShift.end"
            dur="0.2s"
        />
      </use>

      <circle cx="900" cy="0" r="45" fill="#00aef3" style="filter: drop-shadow(0px 0px 20px #00aef3);">
        <animate
            attributeName="cx"
            values="900;910;900"
            begin="3.7s;targetShift.end+3.7s"
            dur="0.3s"
        />
        <animate
            attributeName="r"
            values="45;65;45"
            begin="3.5s;targetShift.end+3.5s"
            dur="0.5s"
        />
      </circle>
      <use xlink:href="#target" x="900" y="0">
        <animate
            id="targetShift"
            attributeName="x"
            values="900;910;900"
            begin="3.7s;targetShift.end+3.7s"
            dur="0.3s"
        />
      </use>
      <use xlink:href="#qi30" x="355" y="-100">
        <animate
            id="qiShift"
            attributeName="x"
            values="355;365;355"
            begin="1.7s;qiShift.end+3.7s"
            dur="0.3s"
        />
      </use>
    </g>
    <g id="row90">
      <circle cx="200" cy="0" r="5" fill="#a8a8a8"/>
      <circle cx="250" cy="0" r="5" fill="#cacaca"/>
      <circle cx="300" cy="0" r="5" fill="#dfdfdf"/>
      <circle cx="350" cy="0" r="5" fill="#f7f7f7"/>
      <circle cx="400" cy="0" r="5" fill="#efefef"/>
      <circle cx="450" cy="0" r="5" fill="#dfdfdf"/>
      <circle cx="500" cy="0" r="5" fill="#cacaca"/>
      <circle cx="550" cy="0" r="5" fill="#a8a8a8"/>
      <circle cx="600" cy="0" r="5" fill="#878787"/>
      <circle cx="650" cy="0" r="5" fill="#6d6d6d"/>

      <use xlink:href="#avax90" x="0" y="-50">
        <animate
            id="avaxShift"
            attributeName="x"
            values="0;700"
            begin="0;avaxShift.end+0.2s"
            dur="3.8s"
        />
        <animate
            id="avaxWait"
            attributeName="x"
            values="700;700"
            begin="avaxShift.end"
            dur="0.2s"
        />
      </use>

      <circle cx="750" cy="0" r="45" fill="#00aef3" style="filter: drop-shadow(0px 0px 20px #00aef3);">
        <animate
            attributeName="cx"
            values="750;760;750"
            begin="3.7s;targetShift.end+3.7s"
            dur="0.3s"
        />
        <animate
            attributeName="r"
            values="45;65;45"
            begin="3.5s;targetShift.end+3.5s"
            dur="0.5s"
        />
      </circle>
      <use xlink:href="#target" x="750" y="0">
        <animate
            id="targetShift"
            attributeName="x"
            values="750;760;750"
            begin="3.7s;targetShift.end+3.7s"
            dur="0.3s"
        />
      </use>
      <use xlink:href="#qi90" x="300" y="-100">
        <animate
            id="qiShift"
            attributeName="x"
            values="300;310;300"
            begin="1.7s;qiShift.end+3.7s"
            dur="0.3s"
        />
      </use>
    </g>
    <g id="row150">
      <g>
        <circle cx="300" cy="0" r="5" fill="#a8a8a8"/>
        <circle cx="350" cy="0" r="5" fill="#cacaca"/>
        <circle cx="400" cy="0" r="5" fill="#dfdfdf"/>
        <circle cx="450" cy="0" r="5" fill="#f7f7f7"/>
        <circle cx="500" cy="0" r="5" fill="#f7f7f7"/>
        <circle cx="550" cy="0" r="5" fill="#efefef"/>
        <circle cx="600" cy="0" r="5" fill="#dfdfdf"/>
        <circle cx="650" cy="0" r="5" fill="#cacaca"/>
        <circle cx="700" cy="0" r="5" fill="#a8a8a8"/>
        <circle cx="750" cy="0" r="5" fill="#878787"/>
        <circle cx="800" cy="0" r="5" fill="#6d6d6d"/>
      </g>

      <use xlink:href="#avax150" x="0" y="-50">
        <animate
            id="avaxShift"
            attributeName="x"
            values="0;850"
            begin="0;avaxShift.end+0.2s"
            dur="3.8s"
        />
        <animate
            id="avaxWait"
            attributeName="x"
            values="850;850"
            begin="avaxShift.end"
            dur="0.2s"
        />
      </use>

      <circle cx="900" cy="0" r="45" fill="#00aef3" style="filter: drop-shadow(0px 0px 20px #00aef3);">
        <animate
            attributeName="cx"
            values="900;910;900"
            begin="3.7s;targetShift.end+3.7s"
            dur="0.3s"
        />
        <animate
            attributeName="r"
            values="45;65;45"
            begin="3.5s;targetShift.end+3.5s"
            dur="0.5s"
        />
      </circle>
      <use xlink:href="#target" x="900" y="0">
        <animate
            id="targetShift"
            attributeName="x"
            values="900;910;900"
            begin="3.7s;targetShift.end+3.7s"
            dur="0.3s"
        />
      </use>
      <use xlink:href="#qi150" x="355" y="-100">
        <animate
            id="qiShift"
            attributeName="x"
            values="355;365;355"
            begin="1.7s;qiShift.end+3.7s"
            dur="0.3s"
        />
      </use>
    </g>
    <g id="row210">
      <g>
        <circle cx="300" cy="0" r="5" fill="#a8a8a8"/>
        <circle cx="350" cy="0" r="5" fill="#cacaca"/>
        <circle cx="400" cy="0" r="5" fill="#dfdfdf"/>
        <circle cx="450" cy="0" r="5" fill="#f7f7f7"/>
        <circle cx="500" cy="0" r="5" fill="#f7f7f7"/>
        <circle cx="550" cy="0" r="5" fill="#efefef"/>
        <circle cx="600" cy="0" r="5" fill="#dfdfdf"/>
        <circle cx="650" cy="0" r="5" fill="#cacaca"/>
        <circle cx="700" cy="0" r="5" fill="#a8a8a8"/>
        <circle cx="750" cy="0" r="5" fill="#878787"/>
        <circle cx="800" cy="0" r="5" fill="#6d6d6d"/>
      </g>

      <use xlink:href="#avax210" x="0" y="-50">
        <animate
            id="avaxShift"
            attributeName="x"
            values="0;850"
            begin="0;avaxShift.end+0.2s"
            dur="3.8s"
        />
        <animate
            id="avaxWait"
            attributeName="x"
            values="850;850"
            begin="avaxShift.end"
            dur="0.2s"
        />
      </use>

      <circle cx="900" cy="0" r="45" fill="#00aef3" style="filter: drop-shadow(0px 0px 20px #00aef3);">
        <animate
            attributeName="cx"
            values="900;910;900"
            begin="3.7s;targetShift.end+3.7s"
            dur="0.3s"
        />
        <animate
            attributeName="r"
            values="45;65;45"
            begin="3.5s;targetShift.end+3.5s"
            dur="0.5s"
        />
      </circle>
      <use xlink:href="#target" x="900" y="0">
        <animate
            id="targetShift"
            attributeName="x"
            values="900;910;900"
            begin="3.7s;targetShift.end+3.7s"
            dur="0.3s"
        />
      </use>
      <use xlink:href="#qi210" x="355" y="-100">
        <animate
            id="qiShift"
            attributeName="x"
            values="355;365;355"
            begin="1.7s;qiShift.end+3.7s"
            dur="0.3s"
        />
      </use>
    </g>
    <g id="row270">
      <circle cx="200" cy="0" r="5" fill="#a8a8a8"/>
      <circle cx="250" cy="0" r="5" fill="#cacaca"/>
      <circle cx="300" cy="0" r="5" fill="#dfdfdf"/>
      <circle cx="350" cy="0" r="5" fill="#f7f7f7"/>
      <circle cx="400" cy="0" r="5" fill="#efefef"/>
      <circle cx="450" cy="0" r="5" fill="#dfdfdf"/>
      <circle cx="500" cy="0" r="5" fill="#cacaca"/>
      <circle cx="550" cy="0" r="5" fill="#a8a8a8"/>
      <circle cx="600" cy="0" r="5" fill="#878787"/>
      <circle cx="650" cy="0" r="5" fill="#6d6d6d"/>

      <use xlink:href="#avax270" x="0" y="-50">
        <animate
            id="avaxShift"
            attributeName="x"
            values="0;700"
            begin="0;avaxShift.end+0.2s"
            dur="3.8s"
        />
        <animate
            id="avaxWait"
            attributeName="x"
            values="700;700"
            begin="avaxShift.end"
            dur="0.2s"
        />
      </use>

      <circle cx="750" cy="0" r="45" fill="#00aef3" style="filter: drop-shadow(0px 0px 20px #00aef3);">
        <animate
            attributeName="cx"
            values="750;760;750"
            begin="3.7s;targetShift.end+3.7s"
            dur="0.3s"
        />
        <animate
            attributeName="r"
            values="45;65;45"
            begin="3.5s;targetShift.end+3.5s"
            dur="0.5s"
        />
      </circle>
      <use xlink:href="#target" x="750" y="0">
        <animate
            id="targetShift"
            attributeName="x"
            values="750;760;750"
            begin="3.7s;targetShift.end+3.7s"
            dur="0.3s"
        />
      </use>
      <use xlink:href="#qi270" x="300" y="-100">
        <animate
            id="qiShift"
            attributeName="x"
            values="300;310;300"
            begin="1.7s;qiShift.end+3.7s"
            dur="0.3s"
        />
      </use>
    </g>
    <g id="row330">
      <g>
        <circle cx="300" cy="0" r="5" fill="#a8a8a8"/>
        <circle cx="350" cy="0" r="5" fill="#cacaca"/>
        <circle cx="400" cy="0" r="5" fill="#dfdfdf"/>
        <circle cx="450" cy="0" r="5" fill="#f7f7f7"/>
        <circle cx="500" cy="0" r="5" fill="#f7f7f7"/>
        <circle cx="550" cy="0" r="5" fill="#efefef"/>
        <circle cx="600" cy="0" r="5" fill="#dfdfdf"/>
        <circle cx="650" cy="0" r="5" fill="#cacaca"/>
        <circle cx="700" cy="0" r="5" fill="#a8a8a8"/>
        <circle cx="750" cy="0" r="5" fill="#878787"/>
        <circle cx="800" cy="0" r="5" fill="#6d6d6d"/>
      </g>

      <use xlink:href="#avax330" x="0" y="-50">
        <animate
            id="avaxShift"
            attributeName="x"
            values="0;850"
            begin="0;avaxShift.end+0.2s"
            dur="3.8s"
        />
        <animate
            id="avaxWait"
            attributeName="x"
            values="850;850"
            begin="avaxShift.end"
            dur="0.2s"
        />
      </use>

      <circle cx="900" cy="0" r="45" fill="#00aef3" style="filter: drop-shadow(0px 0px 20px #00aef3);">
        <animate
            attributeName="cx"
            values="900;910;900"
            begin="3.7s;targetShift.end+3.7s"
            dur="0.3s"
        />
        <animate
            attributeName="r"
            values="45;65;45"
            begin="3.5s;targetShift.end+3.5s"
            dur="0.5s"
        />
      </circle>
      <use xlink:href="#target" x="900" y="0">
        <animate
            id="targetShift"
            attributeName="x"
            values="900;910;900"
            begin="3.7s;targetShift.end+3.7s"
            dur="0.3s"
        />
      </use>
      <use xlink:href="#qi330" x="355" y="-100">
        <animate
            id="qiShift"
            attributeName="x"
            values="355;365;355"
            begin="1.7s;qiShift.end+3.7s"
            dur="0.3s"
        />
      </use>
    </g>
  </defs>

  <use href="#row30" x="1000" y="1000" style="transform-origin: center" transform="rotate(30)"/>
  <use href="#row90" x="1000" y="1000" style="transform-origin: center" transform="rotate(90)"/>
  <use href="#row150" x="1000" y="1000" style="transform-origin: center" transform="rotate(150)"/>
  <use href="#row210" x="1000" y="1000" style="transform-origin: center" transform="rotate(210)"/>
  <use href="#row270" x="1000" y="1000" style="transform-origin: center" transform="rotate(270)"/>
  <use href="#row330" x="1000" y="1000" style="transform-origin: center" transform="rotate(330)"/>

  <g style="filter: url(#glow);">
    <style>
      .liquidStaking {
        text-shadow: 0px 0px 3px #00aef3;
        font-weight: bold;
        font-size: 72px;
        font-family: "Outfit", sans-serif;
        font-weight: 500;
      }
    </style>

    <circle cx="1000" cy="1000" r="100" fill="#000000" fill-opacity="0.1"/>
    <use xlink:href="#benqi" x="800" y="840"/>
    <text x="720" y="1080" class="liquidStaking" fill="#ffffff">
      LIQUID STAKING
    </text>
  </g>
</svg>
